<?xml version="1.0" encoding="UTF-8" standalone="no"?>
<!-- Generator: Adobe Illustrator 22.1.0, SVG Export Plug-In . SVG Version: 6.00 Build 0)  -->

<svg
   version="1.1"
   id="Layer_1"
   x="0px"
   y="0px"
   width="64"
   height="64"
   viewBox="0 0 64 64"
   style="enable-background:new 0 0 64 64;"
   xml:space="preserve"
   sodipodi:docname="icon-m-xdg-desktop-portal-dark.svg"
   inkscape:version="1.1.2 (b8e25be833, 2022-02-05)"
   xmlns:inkscape="http://www.inkscape.org/namespaces/inkscape"
   xmlns:sodipodi="http://sodipodi.sourceforge.net/DTD/sodipodi-0.dtd"
   xmlns="http://www.w3.org/2000/svg"
   xmlns:svg="http://www.w3.org/2000/svg"><defs
   id="defs24856"><filter
     id="alpha-to-white"
     x="0"
     y="0"
     width="1"
     height="1"><feColorMatrix
       in="SourceGraphic"
       type="matrix"
       values="0 0 0 0 0 0 0 0 0 0 0 0 0 0 0 0 0 0 0.8 0"
       id="feColorMatrix2" /></filter></defs><sodipodi:namedview
   id="namedview24854"
   pagecolor="#ffffff"
   bordercolor="#111111"
   borderopacity="1"
   inkscape:pageshadow="0"
   inkscape:pageopacity="0"
   inkscape:pagecheckerboard="1"
   showgrid="false"
   inkscape:zoom="6.8203125"
   inkscape:cx="-9.8969072"
   inkscape:cy="40.833906"
   inkscape:window-width="2275"
   inkscape:window-height="1082"
   inkscape:window-x="1071"
   inkscape:window-y="73"
   inkscape:window-maximized="0"
   inkscape:current-layer="g943" />
<g
   id="g943"
   transform="matrix(3.7795276,0,0,3.7795276,-1973.5558,2183.5855)"><g
     id="use3"
     style="filter:url(#alpha-to-white)"
     transform="matrix(0.83167657,0,0,0.83167657,523.98322,-575.92707)"><svg
       height="16"
       viewBox="0 0 16 16"
       width="16"
       version="1.1"
       id="svg1384"><g
         fill="#222222"
         id="g1382"><path
           d="M 10.421875,1.007812 C 9.0625,-0.351562 6.820312,-0.234375 5.445312,1.140625 L 1.140625,5.445312 c -1.375,1.375 -1.492187,3.617188 -0.132813,4.976563 l 4.570313,4.570313 c 1.359375,1.359374 3.597656,1.242187 4.976563,-0.132813 l 4.304687,-4.308594 c 1.375,-1.375 1.492187,-3.613281 0.132813,-4.972656 z M 9.007812,2.421875 13.578125,6.992188 C 14.121094,7.53125 14.117188,8.46875 13.445312,9.136719 L 9.136719,13.445312 C 8.46875,14.117188 7.535156,14.121094 6.992188,13.578125 L 2.421875,9.007812 C 1.878906,8.464844 1.882812,7.53125 2.554688,6.859375 L 6.859375,2.554688 C 7.53125,1.882812 8.464844,1.878906 9.007812,2.421875 Z m 0,0"
           id="path1378" /><path
           d="M 8.292969,3.191406 C 6.988281,3.101562 5.652344,3.5 4.617188,4.441406 2.761719,6.132812 2.507812,9.113281 4.246094,10.996094 5.785156,12.664062 8.484375,12.882812 10.175781,11.292969 11.652344,9.90625 11.839844,7.488281 10.398438,5.988281 9.164062,4.703125 7.023438,4.542969 5.714844,5.839844 4.621094,6.925781 4.492188,8.785156 5.648438,9.902344 6.582031,10.808594 8.164062,10.898438 9.089844,9.886719 9.800781,9.101562 9.859375,7.789062 8.976562,7.0625 8.65625,6.804688 8.257812,6.675781 7.855469,6.695312 7.449219,6.714844 7.027344,6.90625 6.769531,7.292969 6.605469,7.539062 6.542969,7.832031 6.585938,8.128906 c 0.042968,0.300782 0.25,0.636719 0.605468,0.761719 0.265625,0.089844 0.425782,0.039063 0.625,-0.074219 C 7.917969,8.761719 8.042969,8.667969 8.105469,8.488281 8.164062,8.304688 8.097656,8.082031 7.996094,7.957031 7.855469,7.792969 7.609375,7.765625 7.433594,7.894531 7.441406,7.839844 7.445312,7.785156 7.464844,7.753906 7.566406,7.601562 7.707031,7.535156 7.894531,7.527344 8.085938,7.515625 8.300781,7.585938 8.449219,7.707031 8.925781,8.097656 8.890625,8.867188 8.472656,9.324219 7.890625,9.964844 6.84375,9.902344 6.226562,9.304688 5.429688,8.535156 5.519531,7.207031 6.300781,6.433594 c 0.960938,-0.953125 2.570313,-0.832032 3.5,0.132812 1.101563,1.148438 0.953125,3.042969 -0.195312,4.121094 -1.339844,1.257812 -3.515625,1.078125 -4.75,-0.257812 C 3.445312,8.902344 3.65625,6.445312 5.179688,5.058594 c 1.714843,-1.5625 4.457031,-1.324219 5.996093,0.386718 1.492188,1.65625 1.511719,4.234376 0.148438,5.980469 -0.140625,0.183594 -0.109375,0.445313 0.07422,0.585938 0.179687,0.140625 0.441406,0.109375 0.582031,-0.07031 C 13.589844,9.875 13.566406,6.859375 11.792969,4.886719 10.875,3.863281 9.597656,3.28125 8.292969,3.191406 Z m 0,0"
           fill-rule="evenodd"
           id="path1380" /></g></svg></g></g><g
   id="g946"
   transform="translate(-236.00001,-101.97261)" />
</svg>
